<svg width="16" height="16" viewBox="0 0 16 16" fill="none" xmlns="http://www.w3.org/2000/svg">
<path d="M13.7143 1.33333H2.28274C1.75893 1.33333 1.33333 1.76488 1.33333 2.29464V13.7054C1.33333 14.2351 1.75893 14.6667 2.28274 14.6667H13.7143C14.2381 14.6667 14.6667 14.2351 14.6667 13.7054V2.29464C14.6667 1.76488 14.2381 1.33333 13.7143 1.33333ZM5.3631 12.7619H3.38691V6.39881H5.36607V12.7619H5.3631ZM4.375 5.52976C3.74107 5.52976 3.22917 5.01488 3.22917 4.38393C3.22917 3.75298 3.74107 3.23809 4.375 3.23809C5.00595 3.23809 5.52083 3.75298 5.52083 4.38393C5.52083 5.01786 5.00893 5.52976 4.375 5.52976V5.52976ZM12.7708 12.7619H10.7946V9.66667C10.7946 8.92857 10.7798 7.97917 9.76786 7.97917C8.7381 7.97917 8.58036 8.78274 8.58036 9.61309V12.7619H6.60417V6.39881H8.5V7.26786H8.52679C8.79167 6.76786 9.4375 6.24107 10.3988 6.24107C12.3988 6.24107 12.7708 7.55952 12.7708 9.27381V12.7619V12.7619Z" fill="white"/>
</svg>
